name ./resultDataOpenSim/trcMotMarkerGrf/sub10/grf-04-05.mot
datacolumns 19
datarows 22
range 0.98400000 1.06800000
endheader

                time	     ground_force_vx	     ground_force_vy	     ground_force_vz	     ground_force_px	     ground_force_py	     ground_force_pz	   l_ground_force_vx	   l_ground_force_vy	   l_ground_force_vz	   l_ground_force_px	   l_ground_force_py	   l_ground_force_pz	     ground_torque_x	     ground_torque_y	     ground_torque_z	   l_ground_torque_x	   l_ground_torque_y	   l_ground_torque_z	
          0.98400000	          0.00000000	          0.00000000	          0.00000000	          0.00000000	          0.00000000	          0.00000000	         -1.16111580	        286.66087266	         14.65194458	          0.08601161	         -0.07500000	         -0.13700262	          0.00000000	          0.00000000	          0.00000000	          0.00000000	         -0.94578788	          0.00000000	
          0.98800000	          0.00000000	          0.00000000	          0.00000000	          0.00000000	          0.00000000	          0.00000000	          0.62165179	        285.80804078	         14.91161178	          0.08599097	         -0.07500000	         -0.13715733	          0.00000000	          0.00000000	          0.00000000	          0.00000000	         -0.97789527	          0.00000000	
          0.99200000	          0.00000000	          0.00000000	          0.00000000	          0.00000000	          0.00000000	          0.00000000	          2.47894678	        286.63968140	         15.21511192	          0.08604342	         -0.07500000	         -0.13701400	          0.00000000	          0.00000000	          0.00000000	          0.00000000	         -1.01836696	          0.00000000	
          0.99600000	          0.00000000	          0.00000000	          0.00000000	          0.00000000	          0.00000000	          0.00000000	          4.34153638	        289.06179467	         15.47432103	          0.08616186	         -0.07500000	         -0.13659621	          0.00000000	          0.00000000	          0.00000000	          0.00000000	         -1.07600647	          0.00000000	
          1.00000000	          0.00000000	          0.00000000	          0.00000000	          0.00000000	          0.00000000	          0.00000000	          6.17382712	        292.89486617	         15.63288175	          0.08636555	         -0.07500000	         -0.13600402	          0.00000000	          0.00000000	          0.00000000	          0.00000000	         -1.15869592	          0.00000000	
          1.00400000	          0.00000000	          0.00000000	          0.00000000	          0.00000000	          0.00000000	          0.00000000	          7.99220316	        297.95079620	         15.67276698	          0.08664777	         -0.07500000	         -0.13535484	          0.00000000	          0.00000000	          0.00000000	          0.00000000	         -1.27154388	          0.00000000	
          1.00800000	          0.00000000	          0.00000000	          0.00000000	          0.00000000	          0.00000000	          0.00000000	          9.84469858	        304.08189314	         15.59459677	          0.08696928	         -0.07500000	         -0.13467333	          0.00000000	          0.00000000	          0.00000000	          0.00000000	         -1.41604731	          0.00000000	
          1.01200000	          0.00000000	          0.00000000	          0.00000000	          0.00000000	          0.00000000	          0.00000000	         11.77924930	        311.13195354	         15.40593567	          0.08734845	         -0.07500000	         -0.13397508	          0.00000000	          0.00000000	          0.00000000	          0.00000000	         -1.59039392	          0.00000000	
          1.01600000	          0.00000000	          0.00000000	          0.00000000	          0.00000000	          0.00000000	          0.00000000	         13.83032474	        318.90362424	         15.12408903	          0.08778904	         -0.07500000	         -0.13339136	          0.00000000	          0.00000000	          0.00000000	          0.00000000	         -1.79054168	          0.00000000	
          1.02000000	          0.00000000	          0.00000000	          0.00000000	          0.00000000	          0.00000000	          0.00000000	         16.01068070	        327.25387301	         14.77271109	          0.08823890	         -0.07500000	         -0.13305762	          0.00000000	          0.00000000	          0.00000000	          0.00000000	         -2.01159356	          0.00000000	
          1.02400000	          0.00000000	          0.00000000	          0.00000000	          0.00000000	          0.00000000	          0.00000000	         18.29948025	        336.21589089	         14.37175001	          0.08866188	         -0.07500000	         -0.13294560	          0.00000000	          0.00000000	          0.00000000	          0.00000000	         -2.24903688	          0.00000000	
          1.02800000	          0.00000000	          0.00000000	          0.00000000	          0.00000000	          0.00000000	          0.00000000	         20.64567900	        345.98651377	         13.93899901	          0.08907405	         -0.07500000	         -0.13289628	          0.00000000	          0.00000000	          0.00000000	          0.00000000	         -2.49950884	          0.00000000	
          1.03200000	          0.00000000	          0.00000000	          0.00000000	          0.00000000	          0.00000000	          0.00000000	         22.99467844	        356.79789246	         13.50015714	          0.08950578	         -0.07500000	         -0.13277910	          0.00000000	          0.00000000	          0.00000000	          0.00000000	         -2.76094461	          0.00000000	
          1.03600000	          0.00000000	          0.00000000	          0.00000000	          0.00000000	          0.00000000	          0.00000000	         25.31363803	        368.81906228	         13.08736850	          0.08995364	         -0.07500000	         -0.13255835	          0.00000000	          0.00000000	          0.00000000	          0.00000000	         -3.03219728	          0.00000000	
          1.04000000	          0.00000000	          0.00000000	          0.00000000	          0.00000000	          0.00000000	          0.00000000	         27.59165146	        382.14726136	         12.72741918	          0.09038239	         -0.07500000	         -0.13224296	          0.00000000	          0.00000000	          0.00000000	          0.00000000	         -3.31238592	          0.00000000	
          1.04400000	          0.00000000	          0.00000000	          0.00000000	          0.00000000	          0.00000000	          0.00000000	         29.83476132	        396.82063820	         12.43885679	          0.09074629	         -0.07500000	         -0.13185643	          0.00000000	          0.00000000	          0.00000000	          0.00000000	         -3.60031209	          0.00000000	
          1.04800000	          0.00000000	          0.00000000	          0.00000000	          0.00000000	          0.00000000	          0.00000000	         32.07664478	        412.80823708	         12.24055308	          0.09101011	         -0.07500000	         -0.13142946	          0.00000000	          0.00000000	          0.00000000	          0.00000000	         -3.89424888	          0.00000000	
          1.05200000	          0.00000000	          0.00000000	          0.00000000	          0.00000000	          0.00000000	          0.00000000	         34.37678243	        430.01610916	         12.15406664	          0.09116257	         -0.07500000	         -0.13098622	          0.00000000	          0.00000000	          0.00000000	          0.00000000	         -4.19219754	          0.00000000	
          1.05600000	          0.00000000	          0.00000000	          0.00000000	          0.00000000	          0.00000000	          0.00000000	         36.79644271	        448.32159220	         12.19298253	          0.09123519	         -0.07500000	         -0.13053712	          0.00000000	          0.00000000	          0.00000000	          0.00000000	         -4.49240270	          0.00000000	
          1.06000000	          0.00000000	          0.00000000	          0.00000000	          0.00000000	          0.00000000	          0.00000000	         39.39232812	        467.59362799	         12.35274822	          0.09130073	         -0.07500000	         -0.13008705	          0.00000000	          0.00000000	          0.00000000	          0.00000000	         -4.79375133	          0.00000000	
          1.06400000	          0.00000000	          0.00000000	          0.00000000	          0.00000000	          0.00000000	          0.00000000	         42.23528504	        487.69602821	         12.61106205	          0.09143046	         -0.07500000	         -0.12964474	          0.00000000	          0.00000000	          0.00000000	          0.00000000	         -5.09579498	          0.00000000	
          1.06800000	          0.00000000	          0.00000000	          0.00000000	          0.00000000	          0.00000000	          0.00000000	         45.41587880	        508.50970270	         12.93897740	          0.09165156	         -0.07500000	         -0.12922258	          0.00000000	          0.00000000	          0.00000000	          0.00000000	         -5.39839633	          0.00000000	
